<svg width="62" height="62" viewBox="0 0 62 62" fill="none" xmlns="http://www.w3.org/2000/svg">
<g filter="url(#filter0_d_2_132)">
<rect x="4" width="54" height="54" rx="27" fill="#E5E5E5"/>
<path d="M22 22L27 18C27 18 22 28.5 22 32" stroke="#1434E1" stroke-width="2" stroke-linecap="round" stroke-linejoin="round"/>
<path d="M31.4359 18C29.9359 18.5 28.9359 21 28.4359 23C27.9359 25 27.3441 28 29.9359 28C33.5276 28 33.0277 20 33.0277 20" stroke="#1434E1" stroke-width="2" stroke-linecap="round"/>
<path d="M38.4359 18C36.9359 18.5 35.9359 21 35.4359 23C34.9359 25 34.3441 28 36.9359 28C40.5276 28 40.0277 20 40.0277 20" stroke="#1434E1" stroke-width="2" stroke-linecap="round"/>
<path d="M26 32C26 32 31 30 37 31" stroke="#1434E1" stroke-width="2" stroke-linecap="round"/>
<path d="M38 34C29.5 33.102 23 36 23 36" stroke="#1434E1" stroke-width="2" stroke-linecap="round" stroke-linejoin="round"/>
</g>
<defs>
<filter id="filter0_d_2_132" x="0" y="0" width="62" height="62" filterUnits="userSpaceOnUse" color-interpolation-filters="sRGB">
<feFlood flood-opacity="0" result="BackgroundImageFix"/>
<feColorMatrix in="SourceAlpha" type="matrix" values="0 0 0 0 0 0 0 0 0 0 0 0 0 0 0 0 0 0 127 0" result="hardAlpha"/>
<feOffset dy="4"/>
<feGaussianBlur stdDeviation="2"/>
<feComposite in2="hardAlpha" operator="out"/>
<feColorMatrix type="matrix" values="0 0 0 0 0 0 0 0 0 0 0 0 0 0 0 0 0 0 0.25 0"/>
<feBlend mode="normal" in2="BackgroundImageFix" result="effect1_dropShadow_2_132"/>
<feBlend mode="normal" in="SourceGraphic" in2="effect1_dropShadow_2_132" result="shape"/>
</filter>
</defs>
</svg>
